<svg xmlns="http://www.w3.org/2000/svg" viewBox="0 0 900 600">
  <rect width="900" height="600" fill="#0d1220"/>
  <path d="M102 180c54-55 121-76 173-72 30 2 72 27 110 42 40 16 74 30 141 30 59 0 104-11 154-35 44-21 72-27 122-28 29-1 72 7 120 37 36 23 89 71 96 112 5 30-6 65-30 108-26 47-64 85-103 106-41 22-95 36-148 39-44 2-96-1-136-24-72-40-97-120-154-149-59-29-131-24-184-18-51 6-98 25-141 56-24 18-45 37-68 47-13 6-41 11-54 2-14-10-22-33-16-58 9-36 34-75 60-103 31-34 61-74 82-116 17-35 23-70 22-86-1-10 1-22 7-31z" fill="#234634" stroke="#7b5e2b" stroke-width="3"/>
  <path d="M345 200c35 14 102 52 154 71 37 13 80 18 115 12 42-8 58-33 100-51 35-15 67-17 98-13 31 4 61 15 75 37 23 37 20 94 9 130-10 34-43 76-79 101-34 24-92 37-145 41-65 4-112-6-146-29-53-36-71-104-121-150-27-25-63-46-88-58-11-5-22-6-33-2-14 5-16 17-15 32 4 41 22 84 37 117 12 25 16 43 29 63 8 13 17 27 30 31 10 3 24-2 31-8 13-11 18-27 21-42 6-23 10-54 20-82 12-34 37-69 59-93 22-24 54-46 74-64 23-21 40-49 61-66 13-10 45-26 60-24 16 2 23 18 21 32-3 20-19 41-38 54-28 19-67 30-97 35-79 12-142 7-211-1-57-7-111-22-151-56-7-6-15-15-24-12-10 4-9 18-4 30 9 20 34 38 59 45 20 6 55 2 67 19 12 16 4 53-7 82-9 24-23 45-41 62-15 15-39 23-53 15-15-8-20-29-16-45 6-23 23-48 35-69 10-18 18-34 21-52 4-19 5-41 1-62-5-22-20-43-34-59-10-12-25-19-39-20-17-1-25 13-24 31 0 15 2 29 6 46 7 28 14 68 1 89-12 20-35 37-56 42-25 5-51 4-73-7-15-8-29-21-39-35-15-21-22-55-13-80 5-13 16-22 28-27 9-3 19-4 28-4 16 0 33 7 44 18z" fill="#496f49"/>
  <path d="M470 154c59 33 129 72 190 105 46 25 87 38 132 46 42 8 80 7 118 5 48-3 80-19 117-49 21-17 40-39 56-61 18-25 35-66 30-95-5-27-28-44-48-60-37-30-95-42-145-38-70 6-134 30-190 57-44 21-89 42-130 49-28 5-55 10-83 11-31 2-51-12-79-24-18-7-31-17-45-29-15-13-31-31-42-45-12-15-11-38 1-51 16-17 48-21 73-18 43 5 82 32 112 57 36 30 66 71 89 110 14 23 32 48 57 56 17 6 36 2 48-10 12-12 16-30 12-47-4-18-17-34-33-44-18-12-41-17-62-23-37-12-76-25-111-45-20-12-43-24-64-22-22 2-35 14-48 29-17 20-29 46-40 70-10 26-24 49-41 68-27 31-66 53-104 68-39 16-84 24-123 13-21-6-40-18-56-34-14-14-26-33-32-52-7-22-6-46 0-68 8-27 28-49 53-64 16-9 37-14 54-14 14 0 29 3 39 13 9 8 13 23 12 36-1 11-5 25-14 34-10 11-28 14-40 8-12-7-18-21-18-35 0-20 12-39 28-50 14-10 32-13 48-12 28 3 58 23 77 46 16 19 24 44 26 69 2 26-1 53-14 73-13 20-34 34-57 42-29 10-59 10-86 4-22-5-43-16-60-31-20-18-42-41-52-68-10-26-18-58-10-86 7-23 28-43 49-53 18-9 41-13 61-12 24 1 46 11 65 24 19 14 37 37 51 58z" fill="#3b5b3b" opacity="0.82"/>
  <path d="M270 420c21-22 52-31 84-31 37 0 73 13 102 37 27 23 50 55 77 78 20 18 41 35 66 39 31 5 64-5 95-20 44-21 72-53 105-84 23-22 47-43 75-50 25-6 54-3 76 8 35 18 64 49 76 86 5 16 8 33 7 50-2 30-16 59-37 80-16 15-37 25-58 28-45 7-86-16-118-46-24-22-46-47-74-64-30-18-64-28-98-26-31 2-60 16-84 36-28 23-58 53-90 67-44 20-95 18-137-5-41-22-70-62-84-107-7-23-11-48-10-72 1-12 6-24 16-33 12-11 29-15 45-11 22 6 43 24 58 43z" fill="#223a2c" opacity="0.52"/>
  <g fill="#e3c16b" font-family="Georgia, serif" font-size="20">
    <text x="140" y="130">The North</text>
    <text x="332" y="148">The Riverlands</text>
    <text x="490" y="174">The Reach</text>
    <text x="660" y="210">The Stormlands</text>
    <text x="120" y="260">The Westerlands</text>
    <text x="612" y="324">King's Landing</text>
    <text x="730" y="410">Dragonstone</text>
    <text x="150" y="465">The Wall</text>
    <text x="300" y="390">Essos</text>
  </g>
</svg>
